<svg width="197" height="36" viewBox="0 0 197 36" fill="none" xmlns="http://www.w3.org/2000/svg">
<path d="M32.112 34.608H23.616L21.408 27.456H10.56L8.304 34.608H0L11.136 2.928H21.024L32.112 34.608ZM12.096 21.84H19.872L15.984 9.024L12.096 21.84Z" fill="#141414"/>
<path d="M35.2204 34.608V10.608H42.5164L42.808 18.608L42.6877 15.3075C42.808 14.608 42.8996 14.084 43.808 13.108C44.7761 12.0678 45.5724 11.616 46.7884 11.04C48.0364 10.432 49.4284 10.128 50.9644 10.128C52.6284 10.128 54.0684 10.448 55.2844 11.088C56.5324 11.728 57.5084 12.672 58.2124 13.92C58.9164 15.168 59.2684 16.736 59.2684 18.624V34.608H51.1084V20.784C51.1084 19.12 50.7884 17.968 50.1484 17.328C49.5084 16.688 48.6924 16.368 47.7004 16.368C46.9324 16.368 46.2124 16.56 45.5404 16.944C44.8684 17.296 44.3404 17.872 43.9564 18.672C43.5724 19.472 43.3804 20.544 43.3804 21.888V34.608H35.2204Z" fill="#141414"/>
<path d="M73.818 35.088C71.834 35.088 70.09 34.608 68.586 33.648C67.114 32.656 65.962 31.232 65.13 29.376C64.33 27.52 63.93 25.296 63.93 22.704C63.93 20.016 64.346 17.744 65.178 15.888C66.042 14.032 67.226 12.608 68.73 11.616C70.266 10.624 72.026 10.128 74.01 10.128C76.186 10.128 77.93 10.8 79.242 12.144C80.586 13.456 81.546 14.32 81.93 16.368L81.7999 15.7955L81.6151 15.223L81.3714 14.6742L81.066 14.1538V0.432H89.226V34.608H81.93L81.402 26.448L81.6369 30.0785L81.6418 30.1535L82.0666 29.3868L82.308 28.8733C82.308 28.8733 82.5276 28.345 82.6264 27.993C82.7216 27.6533 82.808 27.108 82.808 27.108C82.616 28.708 81.674 30.16 80.874 31.344C80.106 32.528 79.114 33.456 77.898 34.128C76.714 34.768 75.354 35.088 73.818 35.088ZM76.65 29.088C77.578 29.088 78.362 28.848 79.002 28.368C79.674 27.856 80.186 27.104 80.538 26.112C80.89 25.12 81.066 23.904 81.066 22.464C81.066 21.12 80.89 19.984 80.538 19.056C80.218 18.096 79.722 17.376 79.05 16.896C78.41 16.384 77.626 16.128 76.698 16.128C75.29 16.128 74.17 16.656 73.338 17.712C72.538 18.736 72.138 20.368 72.138 22.608C72.138 24.848 72.538 26.496 73.338 27.552C74.138 28.576 75.242 29.088 76.65 29.088Z" fill="#141414"/>
<path d="M95.0798 34.608V10.608H102.28L102.616 15.792C103.224 14 104.12 12.608 105.304 11.616C106.52 10.624 108.056 10.128 109.912 10.128C110.52 10.128 111.032 10.176 111.448 10.272C111.896 10.368 112.248 10.496 112.504 10.656L111.688 17.376C111.368 17.248 110.952 17.152 110.44 17.088C109.96 16.992 109.368 16.944 108.664 16.944C107.704 16.944 106.808 17.152 105.976 17.568C105.144 17.984 104.472 18.608 103.96 19.44C103.48 20.24 103.24 21.264 103.24 22.512V34.608H95.0798Z" fill="#141414"/>
<path d="M127.135 35.088C124.479 35.088 122.176 34.592 120.224 33.6C118.304 32.608 116.815 31.184 115.759 29.328C114.703 27.472 114.175 25.232 114.175 22.608C114.175 19.984 114.703 17.744 115.759 15.888C116.815 14.032 118.287 12.608 120.175 11.616C122.095 10.624 124.288 10.128 126.752 10.128C129.28 10.128 131.424 10.624 133.184 11.616C134.975 12.576 136.336 13.92 137.264 15.648C138.191 17.344 138.656 19.296 138.656 21.504C138.656 22.08 138.639 22.656 138.607 23.232C138.576 23.808 138.527 24.288 138.464 24.672H122.075C122.075 24.672 121.944 23.3529 121.953 22.5C121.962 21.6471 122.122 20.304 122.122 20.304H134.863H130.895L130.956 21.0385L130.975 21.792C130.975 19.872 130.623 18.4 129.919 17.376C129.247 16.352 128.191 15.84 126.752 15.84C125.728 15.84 124.848 16.08 124.112 16.56C123.408 17.04 122.864 17.792 122.479 18.816C122.128 19.84 121.951 21.152 121.951 22.752C121.951 24.32 122.16 25.6 122.576 26.592C122.992 27.552 123.584 28.256 124.352 28.704C125.119 29.12 126.048 29.328 127.135 29.328C128.352 29.328 129.312 29.088 130.016 28.608C130.751 28.128 131.296 27.456 131.648 26.592L138.176 28.752C137.728 30.128 136.943 31.296 135.824 32.256C134.736 33.184 133.423 33.888 131.887 34.368C130.383 34.848 128.799 35.088 127.135 35.088Z" fill="#141414"/>
<path d="M154.644 10.128C157.172 10.128 159.38 10.624 161.268 11.616C163.188 12.576 164.676 14 165.732 15.888C166.82 17.744 167.364 19.984 167.364 22.608C167.364 25.232 166.82 27.488 165.732 29.376C164.676 31.232 163.188 32.656 161.268 33.648C159.38 34.608 157.172 35.088 154.644 35.088C152.18 35.088 149.988 34.608 148.068 33.648C146.148 32.656 144.644 31.232 143.556 29.376C142.5 27.488 141.972 25.232 141.972 22.608C141.972 19.984 142.5 17.744 143.556 15.888C144.644 14 146.148 12.576 148.068 11.616C149.988 10.624 152.18 10.128 154.644 10.128ZM154.644 15.936C153.716 15.936 152.916 16.16 152.244 16.608C151.572 17.056 151.06 17.776 150.708 18.768C150.356 19.76 150.18 21.04 150.18 22.608C150.18 24.176 150.356 25.456 150.708 26.448C151.06 27.408 151.572 28.128 152.244 28.608C152.916 29.056 153.716 29.28 154.644 29.28C155.604 29.28 156.42 29.056 157.092 28.608C157.764 28.128 158.276 27.408 158.628 26.448C158.98 25.456 159.156 24.176 159.156 22.608C159.156 21.04 158.98 19.76 158.628 18.768C158.276 17.776 157.764 17.056 157.092 16.608C156.42 16.16 155.604 15.936 154.644 15.936Z" fill="#141414"/>
<path d="M180.019 0.432V26.448C180.019 27.504 180.195 28.256 180.547 28.704C180.899 29.152 181.491 29.376 182.323 29.376C182.803 29.376 183.203 29.344 183.523 29.28C183.843 29.216 184.227 29.12 184.675 28.992L184.147 33.888C183.571 34.24 182.819 34.528 181.891 34.752C180.963 34.976 180.051 35.088 179.155 35.088C176.595 35.088 174.739 34.496 173.587 33.312C172.435 32.128 171.859 30.192 171.859 27.504V0.432H180.019Z" fill="#141414"/>
<path d="M191.738 7.824C190.074 7.824 188.858 7.52 188.09 6.912C187.354 6.272 186.986 5.28 186.986 3.936C186.986 2.56 187.354 1.568 188.09 0.959999C188.858 0.32 190.074 0 191.738 0C193.37 0 194.57 0.32 195.338 0.959999C196.106 1.568 196.49 2.56 196.49 3.936C196.49 5.28 196.106 6.272 195.338 6.912C194.57 7.52 193.37 7.824 191.738 7.824ZM195.818 10.608V34.608H187.658V10.608H195.818Z" fill="#141414"/>
</svg>
