<svg width="259" height="62" viewBox="0 0 259 62" fill="none" xmlns="http://www.w3.org/2000/svg">
<path d="M32.304 61H23.808L21.6 53.848H10.752L8.49602 61H0.192017L11.328 29.32H21.216L32.304 61ZM12.288 48.232H20.064L16.176 35.416L12.288 48.232Z" fill="#141414"/>
<path d="M66.9484 29.32V61H57.7804L47.9404 43.864L45.5404 39.16H45.4924L45.6844 45.016V61H38.3884V29.32H47.5564L57.3964 46.456L59.7964 51.16H59.8444L59.6524 45.304V29.32H66.9484Z" fill="#141414"/>
<path d="M89.8065 29.32C94.7665 29.32 98.5585 30.696 101.183 33.448C103.839 36.2 105.167 40.104 105.167 45.16C105.167 50.216 103.839 54.12 101.183 56.872C98.5585 59.624 94.7665 61 89.8065 61H76.3665V29.32H89.8065ZM88.9905 54.76C91.6785 54.76 93.6305 53.96 94.8465 52.36C96.0945 50.728 96.7185 48.328 96.7185 45.16C96.7185 41.992 96.0945 39.608 94.8465 38.008C93.6305 36.376 91.6785 35.56 88.9905 35.56H84.6225V54.76H88.9905Z" fill="#141414"/>
<path d="M128.34 29.32C132.116 29.32 135.044 30.216 137.124 32.008C139.236 33.768 140.292 36.12 140.292 39.064C140.292 42.296 139.252 44.76 137.172 46.456C135.092 48.152 132.164 49 128.388 49L127.62 49.432H121.332V61H113.22V29.32H128.34ZM127.188 43.576C128.788 43.576 129.988 43.256 130.788 42.616C131.588 41.976 131.988 40.952 131.988 39.544C131.988 38.168 131.588 37.16 130.788 36.52C129.988 35.88 128.788 35.56 127.188 35.56H121.332V43.576H127.188ZM132.036 45.304L142.164 61H133.044L124.932 47.128L132.036 45.304Z" fill="#141414"/>
<path d="M148.713 61V29.32H173.385V35.704H156.969V42.136H170.025V48.136H156.969V54.616H174.009V61H148.713Z" fill="#141414"/>
<path d="M195.321 28.84C198.521 28.84 201.273 29.496 203.577 30.808C205.913 32.088 207.705 33.944 208.953 36.376C210.201 38.808 210.825 41.736 210.825 45.16C210.825 48.584 210.201 51.512 208.953 53.944C207.705 56.376 205.913 58.248 203.577 59.56C201.273 60.84 198.521 61.48 195.321 61.48C192.121 61.48 189.353 60.84 187.017 59.56C184.681 58.248 182.889 56.376 181.641 53.944C180.393 51.512 179.769 48.584 179.769 45.16C179.769 41.736 180.393 38.808 181.641 36.376C182.889 33.944 184.681 32.088 187.017 30.808C189.353 29.496 192.121 28.84 195.321 28.84ZM195.321 35.32C193.785 35.32 192.489 35.688 191.433 36.424C190.377 37.16 189.577 38.264 189.033 39.736C188.489 41.176 188.217 42.984 188.217 45.16C188.217 47.304 188.489 49.112 189.033 50.584C189.577 52.056 190.377 53.16 191.433 53.896C192.489 54.632 193.785 55 195.321 55C196.857 55 198.137 54.632 199.161 53.896C200.217 53.16 201.017 52.056 201.561 50.584C202.105 49.112 202.377 47.304 202.377 45.16C202.377 42.984 202.105 41.176 201.561 39.736C201.017 38.264 200.217 37.16 199.161 36.424C198.137 35.688 196.857 35.32 195.321 35.32Z" fill="#141414"/>
<path d="M227.16 54.616H243.048V61H218.904V29.32H227.16V54.616Z" fill="#141414"/>
<path d="M258.435 29.32V61H250.179V29.32H258.435Z" fill="#141414"/>
<path d="M5.74002 0.51999V19H2.74402V0.51999H5.74002Z" fill="#141414"/>
<path d="M18.9206 0.23999C20.5819 0.23999 22.0192 0.557323 23.2326 1.19199C24.4459 1.80799 25.4726 2.72266 26.3126 3.93599L24.2966 5.86799C23.5872 4.78532 22.7846 4.01066 21.8886 3.54399C21.0112 3.05866 19.9659 2.81599 18.7526 2.81599C17.8566 2.81599 17.1192 2.93732 16.5406 3.17999C15.9619 3.42266 15.5326 3.74932 15.2526 4.15999C14.9912 4.55199 14.8606 4.99999 14.8606 5.50399C14.8606 6.08266 15.0566 6.58666 15.4486 7.01599C15.8592 7.44532 16.6152 7.78132 17.7166 8.02399L21.4686 8.86399C23.2606 9.25599 24.5299 9.85332 25.2766 10.656C26.0232 11.4587 26.3966 12.476 26.3966 13.708C26.3966 14.8467 26.0886 15.836 25.4726 16.676C24.8566 17.516 23.9979 18.16 22.8966 18.608C21.8139 19.056 20.5352 19.28 19.0606 19.28C17.7539 19.28 16.5779 19.112 15.5326 18.776C14.4872 18.44 13.5726 17.9827 12.7886 17.404C12.0046 16.8253 11.3606 16.1627 10.8566 15.416L12.9286 13.344C13.3206 13.9973 13.8152 14.5853 14.4126 15.108C15.0099 15.612 15.7006 16.004 16.4846 16.284C17.2872 16.564 18.1739 16.704 19.1446 16.704C20.0032 16.704 20.7406 16.6013 21.3566 16.396C21.9912 16.1907 22.4672 15.892 22.7846 15.5C23.1206 15.0893 23.2886 14.604 23.2886 14.044C23.2886 13.5027 23.1019 13.0267 22.7286 12.616C22.3739 12.2053 21.7019 11.888 20.7126 11.664L16.6526 10.74C15.5326 10.4973 14.6086 10.152 13.8806 9.70399C13.1526 9.25599 12.6112 8.71466 12.2566 8.07999C11.9019 7.42666 11.7246 6.69866 11.7246 5.89599C11.7246 4.85066 12.0046 3.90799 12.5646 3.06799C13.1432 2.20932 13.9739 1.52799 15.0566 1.02399C16.1392 0.501324 17.4272 0.23999 18.9206 0.23999Z" fill="#141414"/>
<path d="M47.138 19H43.974L42.21 14.156H34.454L32.69 19H29.61L36.582 0.51999H40.166L47.138 19ZM35.294 11.72H41.37L38.346 3.09599L35.294 11.72Z" fill="#141414"/>
<path d="M51.8151 19V0.51999H59.0951C61.3164 0.51999 62.9404 0.96799 63.9671 1.86399C64.9938 2.75999 65.5071 4.00132 65.5071 5.58799C65.5071 6.55866 65.2271 7.42666 64.6671 8.19199C64.1071 8.93866 63.2858 9.41466 62.2031 9.61999V9.64799C63.3978 9.83466 64.3218 10.3293 64.9751 11.132C65.6471 11.916 65.9831 12.8307 65.9831 13.876C65.9831 15.4627 65.4044 16.7133 64.2471 17.628C63.0898 18.5427 61.4098 19 59.2071 19H51.8151ZM54.7551 16.508H59.3471C60.5231 16.508 61.4004 16.2653 61.9791 15.78C62.5764 15.2947 62.8751 14.6133 62.8751 13.736C62.8751 12.8587 62.5764 12.1773 61.9791 11.692C61.4004 11.2067 60.5231 10.964 59.3471 10.964H54.7551V16.508ZM54.7551 8.47199H58.8711C61.2231 8.47199 62.3991 7.56666 62.3991 5.75599C62.3991 3.94532 61.2231 3.03999 58.8711 3.03999H54.7551V8.47199Z" fill="#141414"/>
<path d="M71.7542 19V0.51999H85.1382V3.09599H74.7502V8.41599H82.8702V10.936H74.7502V16.424H85.5302V19H71.7542Z" fill="#141414"/>
<path d="M93.951 16.424H104.143V19H90.955V0.51999H93.951V16.424Z" fill="#141414"/>
<path d="M124.461 19H121.297L119.533 14.156H111.777L110.013 19H106.933L113.905 0.51999H117.489L124.461 19ZM112.617 11.72H118.693L115.669 3.09599L112.617 11.72Z" fill="#141414"/>
</svg>
